<?xml version="1.0" encoding="UTF-8"?>
<svg width="90px" height="90px" viewBox="0 0 90 90" version="1.1" xmlns="http://www.w3.org/2000/svg" xmlns:xlink="http://www.w3.org/1999/xlink">
    <!-- Generator: Sketch 50.2 (55047) - http://www.bohemiancoding.com/sketch -->
    <title>加(细)</title>
    <desc>Created with Sketch.</desc>
    <defs></defs>
    <g id="Page-1" stroke="none" stroke-width="1" fill="none" fill-rule="evenodd">
        <g id="上传图状态及错误提示及输入字数" transform="translate(-431.000000, -2067.000000)" fill="#CCCCCC">
            <g id="证据截图" transform="translate(49.000000, 1891.000000)">
                <g id="Group" transform="translate(2.000000, 87.000000)">
                    <g id="Group-3" transform="translate(380.000000, 89.000000)">
                        <g id="加(细)-copy-2">
                            <path d="M48.75,43.125 L48.75,14.0625 C48.75,12.5091991 47.4908009,11.25 45.9375,11.25 C44.3841991,11.25 43.125,12.5091991 43.125,14.0625 L43.125,43.125 L14.0625,43.125 C12.5091991,43.125 11.25,44.3841991 11.25,45.9375 C11.25,47.4908009 12.5091991,48.75 14.0625,48.75 L43.125,48.75 L43.125,77.8125 C43.125,79.3658009 44.3841991,80.625 45.9375,80.625 C47.4908009,80.625 48.75,79.3658009 48.75,77.8125 L48.75,48.75 L77.8125,48.75 C79.3658009,48.75 80.625,47.4908009 80.625,45.9375 C80.625,44.3841991 79.3658009,43.125 77.8125,43.125 L48.75,43.125 Z" id="加（细）"></path>
                        </g>
                    </g>
                </g>
            </g>
        </g>
    </g>
</svg>