<?xml version="1.0" encoding="UTF-8"?>
<svg width="30px" height="30px" viewBox="0 0 30 30" version="1.1" xmlns="http://www.w3.org/2000/svg" xmlns:xlink="http://www.w3.org/1999/xlink">
    <!-- Generator: Sketch 50.2 (55047) - http://www.bohemiancoding.com/sketch -->
    <title>关闭线型</title>
    <desc>Created with Sketch.</desc>
    <defs></defs>
    <g id="Page-1" stroke="none" stroke-width="1" fill="none" fill-rule="evenodd">
        <g id="上传图状态及错误提示及输入字数" transform="translate(-275.000000, -1990.000000)" fill="#FFFFFF">
            <g id="证据截图" transform="translate(49.000000, 1891.000000)">
                <g id="Group" transform="translate(2.000000, 87.000000)">
                    <g id="乘" transform="translate(224.000000, 12.000000)">
                        <path d="M16.3323554,15 L24.0999805,7.23237481 C24.4676898,6.86466558 24.4676898,6.26849114 24.0999805,5.90078192 C23.7322713,5.53307269 23.1360969,5.53307269 22.7683877,5.90078192 L15.0007625,13.6684071 L7.23313727,5.90078192 C6.86542804,5.53307269 6.2692536,5.53307269 5.90154438,5.90078192 C5.53383515,6.26849114 5.53383515,6.86466558 5.90154438,7.23237481 L13.6691696,15 L5.90154438,22.7676252 C5.53383515,23.1353344 5.53383515,23.7315089 5.90154438,24.0992181 C6.2692536,24.4669273 6.86542804,24.4669273 7.23313727,24.0992181 L15.0007625,16.3315929 L22.7683877,24.0992181 C23.1360969,24.4669273 23.7322713,24.4669273 24.0999805,24.0992181 C24.4676898,23.7315089 24.4676898,23.1353344 24.0999805,22.7676252 L16.3323554,15 Z" id="乘（细）"></path>
                    </g>
                </g>
            </g>
        </g>
    </g>
</svg>